<mxfile host="app.diagrams.net" modified="2021-09-01T12:02:23.180Z" agent="5.0 (Windows NT 6.1; WOW64) AppleWebKit/537.36 (KHTML, like Gecko) Chrome/92.0.4515.131 YaBrowser/21.8.1.476 Yowser/2.5 Safari/537.36" etag="PLJ2_FFgG0gotMu8IcCW" version="15.0.4" type="github">
  <diagram id="C5RBs43oDa-KdzZeNtuy" name="Page-1">
    <mxGraphModel dx="868" dy="453" grid="1" gridSize="10" guides="1" tooltips="1" connect="1" arrows="1" fold="1" page="1" pageScale="1" pageWidth="827" pageHeight="1169" math="0" shadow="0">
      <root>
        <mxCell id="WIyWlLk6GJQsqaUBKTNV-0" />
        <mxCell id="WIyWlLk6GJQsqaUBKTNV-1" parent="WIyWlLk6GJQsqaUBKTNV-0" />
        <mxCell id="u25yl7AxW_djyWeB26-U-15" value="interface player" style="swimlane;align=center;" parent="WIyWlLk6GJQsqaUBKTNV-1" vertex="1">
          <mxGeometry x="280" y="10" width="200" height="80" as="geometry" />
        </mxCell>
        <mxCell id="UAAcBiEhrj0D65Kn97p1-2" style="edgeStyle=orthogonalEdgeStyle;rounded=0;orthogonalLoop=1;jettySize=auto;html=1;exitX=0.5;exitY=0;exitDx=0;exitDy=0;entryX=1;entryY=0.5;entryDx=0;entryDy=0;" parent="WIyWlLk6GJQsqaUBKTNV-1" source="u25yl7AxW_djyWeB26-U-17" target="u25yl7AxW_djyWeB26-U-15" edge="1">
          <mxGeometry relative="1" as="geometry" />
        </mxCell>
        <mxCell id="u25yl7AxW_djyWeB26-U-17" value="class Player1" style="swimlane;align=center;" parent="WIyWlLk6GJQsqaUBKTNV-1" vertex="1">
          <mxGeometry x="520" y="70" width="200" height="80" as="geometry" />
        </mxCell>
        <mxCell id="UAAcBiEhrj0D65Kn97p1-1" style="edgeStyle=orthogonalEdgeStyle;rounded=0;orthogonalLoop=1;jettySize=auto;html=1;exitX=0.5;exitY=0;exitDx=0;exitDy=0;entryX=0;entryY=0.5;entryDx=0;entryDy=0;" parent="WIyWlLk6GJQsqaUBKTNV-1" source="u25yl7AxW_djyWeB26-U-19" target="u25yl7AxW_djyWeB26-U-15" edge="1">
          <mxGeometry relative="1" as="geometry" />
        </mxCell>
        <mxCell id="u25yl7AxW_djyWeB26-U-19" value="class Player2" style="swimlane;align=center;" parent="WIyWlLk6GJQsqaUBKTNV-1" vertex="1">
          <mxGeometry x="40" y="70" width="200" height="80" as="geometry" />
        </mxCell>
        <mxCell id="UAAcBiEhrj0D65Kn97p1-7" style="edgeStyle=orthogonalEdgeStyle;rounded=0;orthogonalLoop=1;jettySize=auto;html=1;exitX=0;exitY=0.75;exitDx=0;exitDy=0;entryX=0.5;entryY=0;entryDx=0;entryDy=0;" parent="WIyWlLk6GJQsqaUBKTNV-1" source="u25yl7AxW_djyWeB26-U-27" target="u25yl7AxW_djyWeB26-U-29" edge="1">
          <mxGeometry relative="1" as="geometry" />
        </mxCell>
        <mxCell id="UAAcBiEhrj0D65Kn97p1-8" style="edgeStyle=orthogonalEdgeStyle;rounded=0;orthogonalLoop=1;jettySize=auto;html=1;exitX=1;exitY=0.75;exitDx=0;exitDy=0;entryX=0.5;entryY=0;entryDx=0;entryDy=0;" parent="WIyWlLk6GJQsqaUBKTNV-1" source="u25yl7AxW_djyWeB26-U-27" target="u25yl7AxW_djyWeB26-U-30" edge="1">
          <mxGeometry relative="1" as="geometry" />
        </mxCell>
        <mxCell id="Z9ualeZHz5NewLD-onIj-3" style="edgeStyle=orthogonalEdgeStyle;shape=flexArrow;rounded=0;orthogonalLoop=1;jettySize=auto;html=1;exitX=0;exitY=0.5;exitDx=0;exitDy=0;entryX=0.5;entryY=1;entryDx=0;entryDy=0;" edge="1" parent="WIyWlLk6GJQsqaUBKTNV-1" source="u25yl7AxW_djyWeB26-U-27" target="u25yl7AxW_djyWeB26-U-19">
          <mxGeometry relative="1" as="geometry" />
        </mxCell>
        <mxCell id="Z9ualeZHz5NewLD-onIj-6" style="edgeStyle=orthogonalEdgeStyle;shape=flexArrow;rounded=0;orthogonalLoop=1;jettySize=auto;html=1;entryX=0.5;entryY=1;entryDx=0;entryDy=0;" edge="1" parent="WIyWlLk6GJQsqaUBKTNV-1" source="u25yl7AxW_djyWeB26-U-27" target="u25yl7AxW_djyWeB26-U-17">
          <mxGeometry relative="1" as="geometry" />
        </mxCell>
        <mxCell id="u25yl7AxW_djyWeB26-U-27" value="class Logic" style="swimlane;fontSize=12;align=center;startSize=30;" parent="WIyWlLk6GJQsqaUBKTNV-1" vertex="1">
          <mxGeometry x="280" y="150" width="200" height="80" as="geometry" />
        </mxCell>
        <mxCell id="Z9ualeZHz5NewLD-onIj-7" style="edgeStyle=orthogonalEdgeStyle;shape=flexArrow;rounded=0;orthogonalLoop=1;jettySize=auto;html=1;entryX=0;entryY=0.75;entryDx=0;entryDy=0;" edge="1" parent="WIyWlLk6GJQsqaUBKTNV-1" source="u25yl7AxW_djyWeB26-U-29" target="u25yl7AxW_djyWeB26-U-31">
          <mxGeometry relative="1" as="geometry" />
        </mxCell>
        <mxCell id="u25yl7AxW_djyWeB26-U-29" value="class Cross" style="swimlane;fontSize=12;align=center;" parent="WIyWlLk6GJQsqaUBKTNV-1" vertex="1">
          <mxGeometry x="40" y="230" width="200" height="80" as="geometry" />
        </mxCell>
        <mxCell id="Z9ualeZHz5NewLD-onIj-8" style="edgeStyle=orthogonalEdgeStyle;shape=flexArrow;rounded=0;orthogonalLoop=1;jettySize=auto;html=1;entryX=1;entryY=0.75;entryDx=0;entryDy=0;" edge="1" parent="WIyWlLk6GJQsqaUBKTNV-1" source="u25yl7AxW_djyWeB26-U-30" target="u25yl7AxW_djyWeB26-U-31">
          <mxGeometry relative="1" as="geometry" />
        </mxCell>
        <mxCell id="u25yl7AxW_djyWeB26-U-30" value="class Zero" style="swimlane;fontSize=12;align=center;" parent="WIyWlLk6GJQsqaUBKTNV-1" vertex="1">
          <mxGeometry x="520" y="230" width="200" height="80" as="geometry" />
        </mxCell>
        <mxCell id="u25yl7AxW_djyWeB26-U-31" value="interface FigureÂ " style="swimlane;fontSize=12;align=center;" parent="WIyWlLk6GJQsqaUBKTNV-1" vertex="1">
          <mxGeometry x="280" y="290" width="200" height="80" as="geometry" />
        </mxCell>
        <mxCell id="Z9ualeZHz5NewLD-onIj-5" style="edgeStyle=orthogonalEdgeStyle;shape=flexArrow;rounded=0;orthogonalLoop=1;jettySize=auto;html=1;entryX=0.5;entryY=1;entryDx=0;entryDy=0;" edge="1" parent="WIyWlLk6GJQsqaUBKTNV-1" source="UAAcBiEhrj0D65Kn97p1-11" target="u25yl7AxW_djyWeB26-U-27">
          <mxGeometry relative="1" as="geometry" />
        </mxCell>
        <mxCell id="UAAcBiEhrj0D65Kn97p1-11" value="class OutputRezult" style="swimlane;" parent="WIyWlLk6GJQsqaUBKTNV-1" vertex="1">
          <mxGeometry x="520" y="360" width="200" height="80" as="geometry" />
        </mxCell>
      </root>
    </mxGraphModel>
  </diagram>
</mxfile>
